<svg width="20" height="14" viewBox="0 0 20 14" fill="none" xmlns="http://www.w3.org/2000/svg">
<path d="M1 2.33333H19C19.2652 2.33333 19.5196 2.21042 19.7071 1.99162C19.8946 1.77283 20 1.47609 20 1.16667C20 0.857247 19.8946 0.560501 19.7071 0.341709C19.5196 0.122917 19.2652 0 19 0H1C0.734784 0 0.48043 0.122917 0.292893 0.341709C0.105357 0.560501 0 0.857247 0 1.16667C0 1.47609 0.105357 1.77283 0.292893 1.99162C0.48043 2.21042 0.734784 2.33333 1 2.33333ZM19 11.6667H1C0.734784 11.6667 0.48043 11.7896 0.292893 12.0084C0.105357 12.2272 0 12.5239 0 12.8333C0 13.1428 0.105357 13.4395 0.292893 13.6583C0.48043 13.8771 0.734784 14 1 14H19C19.2652 14 19.5196 13.8771 19.7071 13.6583C19.8946 13.4395 20 13.1428 20 12.8333C20 12.5239 19.8946 12.2272 19.7071 12.0084C19.5196 11.7896 19.2652 11.6667 19 11.6667ZM19 5.83333H1C0.734784 5.83333 0.48043 5.95625 0.292893 6.17504C0.105357 6.39383 0 6.69058 0 7C0 7.30942 0.105357 7.60616 0.292893 7.82496C0.48043 8.04375 0.734784 8.16667 1 8.16667H19C19.2652 8.16667 19.5196 8.04375 19.7071 7.82496C19.8946 7.60616 20 7.30942 20 7C20 6.69058 19.8946 6.39383 19.7071 6.17504C19.5196 5.95625 19.2652 5.83333 19 5.83333Z" fill="black"/>
</svg>
