<svg width="25" height="24" viewBox="0 0 25 24" fill="none" xmlns="http://www.w3.org/2000/svg">
<path d="M4.35015 15.4801C3.47196 13.6286 3.27468 11.5268 3.79302 9.5442C4.31136 7.56165 5.51211 5.82533 7.18412 4.64059C8.85612 3.45586 10.8923 2.89857 12.9346 3.06675C14.9769 3.23492 16.8945 4.11778 18.3501 5.56007" stroke="#000D26" stroke-width="1.5" stroke-linecap="round" stroke-linejoin="round"/>
<path d="M19.0598 3.51001V6.25001H16.3198" stroke="#000D26" stroke-width="1.5" stroke-linecap="round" stroke-linejoin="round"/>
<path d="M20.6499 8.52002C21.5281 10.3715 21.7254 12.4733 21.207 14.4559C20.6887 16.4384 19.4879 18.1748 17.8159 19.3595C16.1439 20.5442 14.1077 21.1015 12.0655 20.9333C10.0232 20.7652 8.10558 19.8823 6.6499 18.44" stroke="#000D26" stroke-width="1.5" stroke-linecap="round" stroke-linejoin="round"/>
<path d="M5.93994 20.49V17.75H8.67994" stroke="#000D26" stroke-width="1.5" stroke-linecap="round" stroke-linejoin="round"/>
</svg>
