<svg width="14" height="14" viewBox="0 0 14 14" fill="none" xmlns="http://www.w3.org/2000/svg">
<path d="M8.23489 6.99876L13.7443 1.49823C13.9084 1.33416 14.0012 1.11028 14.0012 0.877542C14.0012 0.644804 13.9084 0.420998 13.7443 0.256936C13.579 0.0916028 13.3564 0 13.1224 0C12.8896 0 12.6671 0.0916028 12.5018 0.256936L7.00124 5.7664L1.50071 0.256936C1.33538 0.0916028 1.11284 0 0.880104 0C0.647365 0 0.423512 0.0916028 0.258178 0.256936C0.0941166 0.420998 0.0012808 0.644804 0.0012808 0.877542C0.0012808 1.11028 0.0941166 1.33416 0.258178 1.49823L5.7676 6.99876L0.258178 12.5005C0.176783 12.5819 0.11193 12.6785 0.0674167 12.7841C0.0229038 12.8909 0 13.0054 0 13.1211C0 13.2369 0.0229038 13.3501 0.0674167 13.4569C0.11193 13.5638 0.176783 13.6604 0.258178 13.7418C0.339573 13.8232 0.436228 13.8894 0.543059 13.9339C0.64989 13.9771 0.76437 14 0.880104 14C0.994565 14 1.109 13.9771 1.21583 13.9339C1.32266 13.8894 1.41931 13.8232 1.50071 13.7418L7.00124 8.23236L12.5018 13.7418C12.5832 13.8232 12.6798 13.8894 12.7867 13.9339C12.8935 13.9771 13.0079 14 13.1224 14C13.2381 14 13.3526 13.9771 13.4594 13.9339C13.5663 13.8894 13.6629 13.8232 13.7443 13.7418C13.8257 13.6604 13.8906 13.5638 13.9351 13.4569C13.9796 13.3501 14.0025 13.2369 14.0025 13.1211C14.0025 13.0054 13.9796 12.8909 13.9351 12.7841C13.8906 12.6785 13.8257 12.5819 13.7443 12.5005L8.23489 6.99876Z" fill="#121212"/>
</svg>
